<?xml version="1.0" encoding="UTF-8"?>
<svg width="14px" height="12px" viewBox="0 0 14 12" version="1.1" xmlns="http://www.w3.org/2000/svg" xmlns:xlink="http://www.w3.org/1999/xlink">
    <!-- Generator: Sketch 52.2 (67145) - http://www.bohemiancoding.com/sketch -->
    <title>Money</title>
    <desc>Created with Sketch.</desc>
    <g id="Page-1" stroke="none" stroke-width="1" fill="none" fill-rule="evenodd" opacity="0.800000012">
        <g id="费用申请创建-copy" transform="translate(-246.000000, -347.000000)">
            <g id="Group-6" transform="translate(246.000000, 344.000000)">
                <g id="Money" transform="translate(0.000000, 3.000000)">
                    <path d="M11.6092308,5.04444444 C11.6523077,4.84444444 11.7815385,4.53333333 12.1907692,4.11111111 C12.32,3.97777778 12.3415385,3.8 12.2769231,3.62222222 C12.2123077,3.46666667 12.0615385,3.35555556 11.8892308,3.35555556 L8.4,3.35555556 C7.99076923,2.97777778 7.53846154,2.66666667 7.04307692,2.42222222 C7.08615385,2.17777778 7.23692308,1.66666667 7.92615385,0.955555556 C8.05538462,0.822222222 8.07692308,0.644444444 8.01230769,0.466666667 C7.94769231,0.311111111 7.79692308,0.2 7.62461538,0.2 L2.52,0.2 C2.34769231,0.2 2.19692308,0.311111111 2.13230769,0.466666667 C2.06769231,0.622222222 2.11076923,0.822222222 2.21846154,0.955555556 C2.92923077,1.68888889 3.08,2.2 3.12307692,2.44444444 C1.31384615,3.28888889 2.27373675e-13,5.26666667 2.27373675e-13,7.44444444 C2.27373675e-13,9.44444444 0.883076923,11.8222222 5.08307692,11.8222222 C6.22461538,11.8222222 7.10769231,11.6444444 7.81846154,11.3333333 C8.4,11.6666667 9.17538462,11.8444444 10.1015385,11.8444444 C12.4707692,11.8444444 13.7846154,10.7111111 13.7846154,8.64444444 C13.7846154,7.11111111 12.9015385,5.68888889 11.6092308,5.04444444 L11.6092308,5.04444444 Z M10.1015385,10.9333333 C9.54153846,10.9333333 9.11076923,10.8666667 8.74461538,10.7555556 C9.84307692,9.88888889 10.1446154,8.57777778 10.1446154,7.42222222 C10.1446154,6.4 9.84307692,5.4 9.32615385,4.53333333 C9.28307692,4.44444444 9.24,4.33333333 9.17538462,4.22222222 L10.9846154,4.22222222 C10.5969231,4.91111111 10.7261538,5.4 10.7476923,5.46666667 C10.7907692,5.6 10.8769231,5.71111111 11.0061538,5.75555556 C12.1261538,6.2 12.9015385,7.37777778 12.9015385,8.64444444 C12.9230769,9.62222222 12.6215385,10.9333333 10.1015385,10.9333333 L10.1015385,10.9333333 Z M9.03723145,10.832901 C10.135693,9.96623433 10.4000283,8.57777778 10.4000283,7.42222222 C10.4000283,6.4 10.0984899,5.4 9.58156679,4.53333333 C9.53848987,4.44444444 9.49541294,4.33333333 9.43079756,4.22222222 L10.9846154,4.22222222 C10.5969231,4.91111111 10.7261538,5.4 10.7476923,5.46666667 C10.7907692,5.6 10.8769231,5.71111111 11.0061538,5.75555556 C12.1261538,6.2 12.9015385,7.37777778 12.9015385,8.64444444 C12.9230769,9.62222222 12.6215385,10.9333333 10.1015385,10.9333333 C9.6594696,10.9333333 9.24902344,10.8807983 9.03723145,10.832901 Z" id="Shape" fill="#F5A623"></path>
                    <polygon id="￥" fill="#FFFFFF" points="3.266 4.716 4.058 4.716 5 6.558 5.942 4.716 6.734 4.716 5.564 6.822 6.362 6.822 6.362 7.194 5.354 7.194 5.348 7.2 5.348 7.716 6.362 7.716 6.362 8.088 5.348 8.088 5.348 9 4.652 9 4.652 8.088 3.644 8.088 3.644 7.716 4.652 7.716 4.652 7.2 4.646 7.194 3.644 7.194 3.644 6.822 4.436 6.822"></polygon>
                </g>
            </g>
        </g>
    </g>
</svg>